<mxfile host="app.diagrams.net" modified="2023-06-23T08:37:38.014Z" agent="Mozilla/5.0 (Windows NT 10.0; Win64; x64) AppleWebKit/537.36 (KHTML, like Gecko) Chrome/114.0.0.0 Safari/537.36" version="21.5.0" etag="1Z30TaOHPYW49ahPnG9Y" type="github">
  <diagram name="Page-1" id="AWcKi7qEjNxlErDGc9WZ">
    <mxGraphModel>
      <root>
        <mxCell id="0" />
        <mxCell id="1" parent="0" />
      </root>
    </mxGraphModel>
  </diagram>
</mxfile>
